<?xml version="1.0" encoding="utf-8"?>
<!-- Generator: Adobe Illustrator 21.1.0, SVG Export Plug-In . SVG Version: 6.00 Build 0)  -->
<svg version="1.1" id="Calque_1" xmlns="http://www.w3.org/2000/svg" xmlns:xlink="http://www.w3.org/1999/xlink" x="0px" y="0px"
	 width="165px" height="185px" viewBox="0 0 165 185" style="enable-background:new 0 0 165 185;" xml:space="preserve">
<g>
	<path style="fill:#F5F5F5;" d="M111,55c0-15.1-12.2-27.2-27-27.2S57,39.9,57,55c0,4.9,1.4,9.6,3.7,13.7l0,0l23.5,35.5l23.5-35.5
		l0,0C109.7,64.8,111,60.1,111,55"/>
</g>
<path style="fill:#F5F5F5;" d="M153.7,112.7c-0.1,0.1-0.1,0.3-0.1,0.5c-0.2,0.2-0.3,0.3-0.5,0.5c0.8,0.5,1.6,0.9,2.3,1.5
	c3.1,3,6.1,6.1,9.2,9.1V90.4c-2.3,7.1-5.6,14-9.9,20.8C154.3,111.7,154,112.2,153.7,112.7z"/>
<path style="fill:#F5F5F5;" d="M155.3,115.2c-0.6-0.6-1.5-1-2.3-1.5c0.2-0.2,0.3-0.3,0.5-0.5c0-0.2,0-0.3,0.1-0.5
	c0.3-0.5,0.6-1,0.9-1.5c4.3-6.7,7.6-13.6,9.9-20.8V40.4c-5.1-16.6-15.1-30.6-28-40.9H31.8C8.8,17.9-4,47.9,1.1,79
	c9,54.2,66.4,85.4,116.7,63.4c1.6-0.7,2.6-0.5,3.8,0.7c11.8,11.9,23.7,23.8,35.7,35.7c2.1,2.1,4.6,3.7,7.2,4.7v-59.2
	C161.4,121.3,158.4,118.2,155.3,115.2z M84.1,115.9c-27.7,0-50.4-22.8-50.4-50.6c0-27.8,23-50.6,50.5-50.4c28,0.2,50.7,23,50.5,50.5
	C134.4,93.3,111.8,115.9,84.1,115.9z"/>
</svg>
