<?xml version="1.0" encoding="utf-8"?>
<!-- Generator: Adobe Illustrator 20.1.0, SVG Export Plug-In . SVG Version: 6.00 Build 0)  -->
<svg version="1.1" id="Calque_1" xmlns="http://www.w3.org/2000/svg" xmlns:xlink="http://www.w3.org/1999/xlink" x="0px" y="0px"
	 width="20px" height="20px" viewBox="0 0 20 20" enable-background="new 0 0 20 20" xml:space="preserve">
<g>
	<polygon points="18.4,9.1 16.2,9.1 16.2,6.8 15,6.8 15,9.1 12.8,9.1 12.8,10.2 15,10.2 15,12.4 16.2,12.4 16.2,10.2 18.4,10.2 	"/>
	<g>
		<path d="M11.4,2.5H10c0.5,0.4,1.5,1.2,1.5,2.9c0,1.6-0.9,2.4-1.9,3.1C9.4,8.8,9.1,9.1,9.1,9.6c0,0.5,0.3,0.8,0.6,1l0.8,0.6
			c1,0.8,1.9,1.6,1.9,3.1c0,2.1-2.1,4.2-6,4.2c-3.3,0-4.8-1.6-4.8-3.2c0-0.8,0.4-1.9,1.7-2.7c1.4-0.8,3.3-0.9,4.3-1
			C7.3,11.1,7,10.7,7,10c0-0.4,0.1-0.6,0.2-0.9c-0.3,0-0.5,0-0.7,0c-2.4,0-3.7-1.7-3.7-3.5c0-1,0.3-2.2,1.3-3c1.3-1,2.9-1.2,4.1-1.2
			h4.7L11.4,2.5z M5.5,12.5c-0.5,0.2-1.9,0.7-1.9,2.3s1.6,2.7,3.9,2.7c2.1,0,3.3-1,3.3-2.4c0-1.1-0.7-1.7-2.4-2.9
			c-0.2,0-0.3,0-0.5,0C7.7,12.2,6.5,12.2,5.5,12.5 M6.8,2.4C6.2,2.4,5.6,2.6,5.2,3C4.8,3.5,4.7,4.1,4.7,4.7c0,1.5,0.9,3.9,2.8,3.9
			C8.1,8.7,8.7,8.3,9,8c0.5-0.5,0.6-1.2,0.6-1.6C9.6,4.8,8.6,2.4,6.8,2.4"/>
	</g>
</g>
</svg>
