<?xml version="1.0" encoding="utf-8"?>
<!-- Generator: Adobe Illustrator 21.1.0, SVG Export Plug-In . SVG Version: 6.00 Build 0)  -->
<svg version="1.1" id="info" xmlns="http://www.w3.org/2000/svg" xmlns:xlink="http://www.w3.org/1999/xlink" x="0px" y="0px"
	 width="40px" height="40px" viewBox="0 0 40 40" style="enable-background:new 0 0 40 40;" xml:space="preserve">
<g>
	<path style="fill:#020203;" d="M38.5,18.5h-3.3c-0.7-7.2-6.5-13-13.7-13.7V1.5C21.5,0.7,20.8,0,20,0s-1.5,0.7-1.5,1.5v3.3
		c-7.2,0.7-13,6.5-13.7,13.7H1.5C0.7,18.5,0,19.2,0,20s0.7,1.5,1.5,1.5h3.3c0.7,7.2,6.5,13,13.7,13.7v3.3c0,0.8,0.7,1.5,1.5,1.5
		s1.5-0.7,1.5-1.5v-3.3c7.2-0.7,13-6.5,13.7-13.7h3.3c0.8,0,1.5-0.7,1.5-1.5S39.3,18.5,38.5,18.5z M20,32.2
		c-6.8,0-12.2-5.5-12.2-12.2c0-6.8,5.5-12.2,12.2-12.2c6.8,0,12.2,5.5,12.2,12.2C32.2,26.8,26.8,32.2,20,32.2z"/>
	<circle style="fill:#020203;" cx="20" cy="19.9" r="9.2"/>
</g>
</svg>
