<?xml version="1.0" encoding="utf-8"?>
<!-- Generator: Adobe Illustrator 21.1.0, SVG Export Plug-In . SVG Version: 6.00 Build 0)  -->
<svg version="1.1" id="Calque_1" xmlns="http://www.w3.org/2000/svg" xmlns:xlink="http://www.w3.org/1999/xlink" x="0px" y="0px"
	 width="20px" height="20px" viewBox="0 0 20 20" style="enable-background:new 0 0 20 20;" xml:space="preserve">
<g>
	<g>
		<path d="M19.3,0.7c-0.4-0.4-1-0.7-1.6-0.7H2.3C1.7,0,1.1,0.3,0.7,0.7S0,1.7,0,2.3v15.4c0,0.6,0.2,1.2,0.7,1.6
			c0.4,0.4,1,0.7,1.6,0.7h15.4c0.6,0,1.2-0.2,1.6-0.7c0.4-0.4,0.7-1,0.7-1.6V2.3C20,1.7,19.8,1.1,19.3,0.7z M6.3,16.3
			c-0.4,0.4-0.8,0.5-1.3,0.5s-0.9-0.2-1.3-0.5C3.4,16,3.2,15.5,3.2,15c0-0.5,0.2-0.9,0.5-1.3c0.4-0.4,0.8-0.5,1.3-0.5
			c0.5,0,0.9,0.2,1.3,0.5c0.4,0.4,0.5,0.8,0.5,1.3C6.8,15.5,6.7,16,6.3,16.3z M11.9,16.9L9,16.8v-0.3c0-1.5-0.5-2.7-1.5-3.8
			c-1-1.1-2.2-1.6-3.7-1.7L4,8c1.5,0.1,2.8,0.5,4,1.3c1.2,0.8,2.2,1.8,2.9,3.1c0.7,1.3,1.1,2.6,1.1,4.1C12,16.6,12,16.8,11.9,16.9z
			 M17,16.9l-2.9-0.1v-0.3c0-1.9-0.5-3.7-1.4-5.3C11.8,9.6,10.6,8.3,9,7.3c-1.6-1-3.3-1.5-5.2-1.5l0.1-2.9C5.7,2.9,7.4,3.3,9,4.1
			c1.6,0.7,3,1.7,4.2,2.9s2.1,2.6,2.8,4.3c0.7,1.6,1,3.4,1,5.2L17,16.9L17,16.9L17,16.9z"/>
	</g>
</g>
</svg>
