<?xml version="1.0" encoding="utf-8"?>
<!-- Generator: Adobe Illustrator 20.1.0, SVG Export Plug-In . SVG Version: 6.00 Build 0)  -->
<svg version="1.1" id="Calque_1" xmlns="http://www.w3.org/2000/svg" xmlns:xlink="http://www.w3.org/1999/xlink" x="0px" y="0px"
	 width="20px" height="20px" viewBox="0 0 20 20" enable-background="new 0 0 20 20" xml:space="preserve">
<g>
	<path d="M18.7,5.2l-5.6-2.8c0,0-0.1,0-0.1,0c0,0,0,0,0,0c-0.1,0-0.1,0-0.2,0.1L9.4,8.1l3.8,6.3l5.5-8.9C18.8,5.3,18.8,5.3,18.7,5.2
		z"/>
	<polygon points="7.6,6.1 7.6,12.2 12.9,14.8 	"/>
	<path d="M13.4,15.1l4.9,2.5c0.3,0.1,0.5,0,0.5-0.3v-11L13.4,15.1z"/>
	<path d="M7,5.2L1.8,2.7L1.5,2.5c0,0-0.1,0-0.1,0c-0.1,0-0.1,0-0.1,0.1c0,0-0.1,0.1-0.1,0.2v11.8c0,0.2,0.1,0.4,0.3,0.5l5.1,2.5
		c0.1,0,0.1,0.1,0.2,0.1c0.2,0,0.3-0.1,0.3-0.4V5.4C7.1,5.3,7,5.3,7,5.2z"/>
</g>
</svg>
