<?xml version="1.0" encoding="utf-8"?>
<!-- Generator: Adobe Illustrator 20.1.0, SVG Export Plug-In . SVG Version: 6.00 Build 0)  -->
<svg version="1.1" id="Calque_1" xmlns="http://www.w3.org/2000/svg" xmlns:xlink="http://www.w3.org/1999/xlink" x="0px" y="0px"
	 width="20px" height="20px" viewBox="0 0 20 20" enable-background="new 0 0 20 20" xml:space="preserve">
<path d="M10.4,1.6c-4.6,0-7,3.4-7,6.1c0,1.7,0.6,3.2,2,3.8c0.2,0.1,0.4,0,0.5-0.3C5.9,11,6,10.5,6.1,10.3c0.1-0.3,0.1-0.3-0.1-0.5
	C5.5,9.3,5.3,8.7,5.3,7.9c0-2.5,1.9-4.7,4.8-4.7c2.6,0,4.1,1.6,4.1,3.8c0,2.8-1.3,5.2-3.1,5.2c-1,0-1.8-0.9-1.5-1.9
	c0.3-1.2,0.9-2.5,0.9-3.5c0-0.8-0.4-1.5-1.3-1.5C8,5.2,7.2,6.3,7.2,7.8c0,0.9,0.3,1.5,0.3,1.5s-1.1,4.5-1.3,5.3
	c-0.4,1.6-0.1,3.5,0,3.7c0,0.1,0.1,0.1,0.2,0.1c0.1-0.1,1.3-1.7,1.7-3.2c0.1-0.4,0.7-2.7,0.7-2.7c0.3,0.7,1.3,1.2,2.4,1.2
	c3.2,0,5.3-2.9,5.3-6.7C16.5,4.2,14.1,1.6,10.4,1.6z"/>
</svg>
