<?xml version="1.0" encoding="utf-8"?>
<!-- Generator: Adobe Illustrator 22.0.1, SVG Export Plug-In . SVG Version: 6.00 Build 0)  -->
<svg version="1.1" id="info" xmlns="http://www.w3.org/2000/svg" xmlns:xlink="http://www.w3.org/1999/xlink" x="0px" y="0px"
	 width="25px" height="25px" viewBox="0 0 25 25" style="enable-background:new 0 0 25 25;" xml:space="preserve">
<path style="fill:#262626;" d="M12.5,1.7 M12.5,1.7L15,9.3l0.2,0.7l0.7,0l8,0l-6.5,4.7l-0.6,0.4l0.2,0.7l2.5,7.6l-6.4-4.7l-0.6-0.4
	L12.5,1.7z M12.5,0.6c-0.3,0-0.7,0.2-0.9,0.7L9.1,9H1C0.5,9,0.1,9.3,0,9.6c-0.1,0.3,0,0.8,0.4,1.1L7,15.5l-2.5,7.6
	c-0.2,0.5,0,1,0.3,1.1c0.1,0.1,0.3,0.2,0.5,0.2c0.2,0,0.4-0.1,0.7-0.2l6.5-4.7l6.5,4.7c0.2,0.2,0.5,0.2,0.7,0.2
	c0.2,0,0.4-0.1,0.5-0.2c0.3-0.2,0.5-0.6,0.3-1.2L18,15.5l6.5-4.7c0.5-0.3,0.5-0.8,0.4-1.1C24.9,9.3,24.5,9,24,9l-8,0l-2.5-7.7
	C13.2,0.8,12.8,0.6,12.5,0.6L12.5,0.6z"/>
</svg>
