<?xml version="1.0" encoding="utf-8"?>
<!-- Generator: Adobe Illustrator 21.1.0, SVG Export Plug-In . SVG Version: 6.00 Build 0)  -->
<svg version="1.1" id="info" xmlns="http://www.w3.org/2000/svg" xmlns:xlink="http://www.w3.org/1999/xlink" x="0px" y="0px"
	 width="40px" height="40px" viewBox="0 0 40 40" style="enable-background:new 0 0 40 40;" xml:space="preserve">
<g>
	<path style="fill:#020203;" d="M10.8,35.4c-0.3,0-0.5-0.1-0.7-0.2c-0.3-0.3-0.6-0.8-0.4-1.5l3.2-9.8l-8.4-6.1
		c-0.6-0.4-0.7-1-0.5-1.4c0.1-0.4,0.5-0.8,1.3-0.8h10.3l3.2-9.8c0.2-0.7,0.8-1,1.2-1c0.4,0,1,0.3,1.2,1l3.2,9.9l10.3,0
		c0.7,0,1.1,0.4,1.3,0.8c0.1,0.4,0.1,1-0.5,1.4l-8.4,6.1l3.2,9.8c0.2,0.7-0.1,1.2-0.4,1.5c-0.4,0.3-0.9,0.4-1.5-0.1L20,29l-8.4,6.1
		C11.3,35.3,11,35.4,10.8,35.4z M11.7,34.3L11.7,34.3C11.7,34.3,11.7,34.3,11.7,34.3z M29.6,33.3L29.6,33.3
		C29.6,33.3,29.6,33.3,29.6,33.3z"/>
</g>
</svg>
