<?xml version="1.0" encoding="utf-8"?>
<!-- Generator: Adobe Illustrator 21.1.0, SVG Export Plug-In . SVG Version: 6.00 Build 0)  -->
<svg version="1.1" id="info" xmlns="http://www.w3.org/2000/svg" xmlns:xlink="http://www.w3.org/1999/xlink" x="0px" y="0px"
	 width="40px" height="40px" viewBox="0 0 40 40" style="enable-background:new 0 0 40 40;" xml:space="preserve">
<path style="fill:#020203;" d="M20,0c-0.9,0-1.7,1-1.7,3.4v33.1c0,2.4,0.7,3.4,1.7,3.4s1.7-1,1.7-3.4V3.4C21.7,1,20.9,0,20,0L20,0z"
	/>
<g>
	<path style="fill:#020203;" d="M34.7,15.3H10c-0.8,0-1.5-0.7-1.5-1.5V6.2c0-0.8,0.7-1.5,1.5-1.5h24.7c0.4,0,0.8,0.2,1.1,0.5L39.2,9
		c0.5,0.6,0.5,1.4,0,2l-3.3,3.8C35.5,15.1,35.1,15.3,34.7,15.3z"/>
</g>
<g>
	<path style="fill:#020203;" d="M30,28.3H5.3c-0.4,0-0.8-0.2-1.1-0.5L0.8,24c-0.5-0.6-0.5-1.4,0-2l3.3-3.8c0.3-0.3,0.7-0.5,1.1-0.5
		H30c0.8,0,1.5,0.7,1.5,1.5v7.6C31.5,27.6,30.9,28.3,30,28.3z"/>
</g>
</svg>
