<?xml version="1.0" encoding="utf-8"?>
<!-- Generator: Adobe Illustrator 21.1.0, SVG Export Plug-In . SVG Version: 6.00 Build 0)  -->
<svg version="1.1" id="info" xmlns="http://www.w3.org/2000/svg" xmlns:xlink="http://www.w3.org/1999/xlink" x="0px" y="0px"
	 width="40px" height="40px" viewBox="0 0 40 40" style="enable-background:new 0 0 40 40;" xml:space="preserve">
<g>
	<path style="fill:#2F75BD;" d="M20,3c6.2,0,11.2,5.1,11.2,11.3c0,2-0.5,3.9-1.5,5.6L20,34.6l-9.7-14.7c-1-1.7-1.5-3.6-1.5-5.6
		C8.8,8.1,13.8,3,20,3 M20,0C12.2,0,5.8,6.4,5.8,14.3c0,2.6,0.7,5,1.9,7.1L20,40l12.3-18.6c1.2-2.1,1.9-4.5,1.9-7.1
		C34.2,6.4,27.8,0,20,0L20,0z"/>
</g>
</svg>
