<?xml version="1.0" encoding="utf-8"?>
<!-- Generator: Adobe Illustrator 21.1.0, SVG Export Plug-In . SVG Version: 6.00 Build 0)  -->
<svg version="1.1" id="info" xmlns="http://www.w3.org/2000/svg" xmlns:xlink="http://www.w3.org/1999/xlink" x="0px" y="0px"
	 width="40px" height="40px" viewBox="0 0 40 40" style="enable-background:new 0 0 40 40;" xml:space="preserve">
<g>
	<path style="fill:#3075BA;" d="M30,3c3.9,0,7,3.1,7,7v20c0,3.9-3.1,7-7,7H10c-3.9,0-7-3.1-7-7V10c0-3.9,3.1-7,7-7H30 M30,0H10
		C4.5,0,0,4.5,0,10v20c0,5.5,4.5,10,10,10h20c5.5,0,10-4.5,10-10V10C40,4.5,35.5,0,30,0L30,0z"/>
	<g transform="translate(0,-952.36218)">
		<path style="fill:#3075BA;" d="M22.1,960.6c-0.7,0-1.3,0.2-1.7,0.7c-0.5,0.5-0.7,1.1-0.7,1.7s0.2,1.3,0.7,1.7
			c0.5,0.5,1.1,0.7,1.7,0.7c0.7,0,1.3-0.2,1.7-0.7c0.5-0.5,0.7-1.1,0.7-1.7s-0.2-1.3-0.7-1.7C23.3,960.8,22.8,960.6,22.1,960.6z
			 M23,968.4 M23,968.4c-2.2,0.3-4.4,0.5-6.6,0.8l-0.2,1c0.2,0,0.4,0,0.6,0c0.4,0,0.7,0.1,0.9,0.3c0.2,0.2,0.3,0.4,0.3,0.7
			c0,0.4-0.1,0.6-0.3,1.3l-2.3,8c-0.2,0.6-0.3,1.2-0.3,1.6c0,0.6,0.2,1.1,0.6,1.6c0.4,0.4,1.8,0.6,2.5,0.6c1.9,0,5-1,6.7-3.9
			l-1.3-0.8c-0.7,1.1-2,1.9-2.5,2.2c-0.6,0.3-1,0.3-1.2,0.3c-0.1,0-0.2-0.1-0.3-0.2c-0.1-0.1-0.1-0.2-0.1-0.3c0-0.2,0.1-0.7,0.3-1.3
			L23,968.4z"/>
	</g>
</g>
</svg>
