<?xml version="1.0" encoding="utf-8"?>
<!-- Generator: Adobe Illustrator 20.1.0, SVG Export Plug-In . SVG Version: 6.00 Build 0)  -->
<svg version="1.1" id="Calque_1" xmlns="http://www.w3.org/2000/svg" xmlns:xlink="http://www.w3.org/1999/xlink" x="0px" y="0px"
	 width="20px" height="20px" viewBox="0 0 20 20" enable-background="new 0 0 20 20" xml:space="preserve">
<g>
	<g>
		<path d="M17.7,10c-0.5,0.1-0.9,0.1-1.3,0.1c-2.2,0-3.9-1.6-3.9-4.3c0-1.3,0.5-2,1.2-2c0.7,0,1.1,0.6,1.1,1.9c0,0.7-0.2,1.5-0.3,2
			c0,0,0.7,1.2,2.6,0.8c0.4-0.9,0.6-2,0.6-3c0-2.7-1.4-4.3-3.9-4.3c-2.6,0-4.1,2-4.1,4.6c0,2.6,1.2,4.8,3.2,5.9
			c-0.8,1.7-1.9,3.2-3,4.3c-2-2.5-3.9-5.7-4.6-12.1h-3c1.4,10.7,5.5,14,6.6,14.7c0.6,0.4,1.2,0.4,1.7,0c0.9-0.5,3.6-3.2,5-6.3
			c0.6,0,1.4-0.1,2.1-0.2V10z M17.7,10"/>
	</g>
</g>
</svg>
