<?xml version="1.0" encoding="utf-8"?>
<!-- Generator: Adobe Illustrator 21.1.0, SVG Export Plug-In . SVG Version: 6.00 Build 0)  -->
<svg version="1.1" id="Calque_1" xmlns="http://www.w3.org/2000/svg" xmlns:xlink="http://www.w3.org/1999/xlink" x="0px" y="0px"
	 width="28px" height="44px" viewBox="0 0 28 44" style="enable-background:new 0 0 28 44;" xml:space="preserve">
<radialGradient id="SVGID_1_" cx="14" cy="40.1117" r="10.167" gradientTransform="matrix(1 0 0 0.2 0 32.0894)" gradientUnits="userSpaceOnUse">
	<stop  offset="0" style="stop-color:#000000;stop-opacity:0.6"/>
	<stop  offset="1" style="stop-color:#000000;stop-opacity:0"/>
</radialGradient>
<path style="fill-rule:evenodd;clip-rule:evenodd;fill:url(#SVGID_1_);" d="M14,36.8c7.7,0,14,1.5,14,3.3c0,1.8-6.3,3.3-14,3.3
	c-7.7,0-14-1.5-14-3.3C0,38.3,6.3,36.8,14,36.8z"/>
<path style="fill:#FFFFFF;" d="M14,2.3c6.4,0,11.6,5.3,11.6,11.9c0,2.1-0.5,4.1-1.5,5.9L14,35.5L3.9,20c-1-1.8-1.5-3.8-1.5-5.9
	C2.4,7.6,7.6,2.3,14,2.3"/>
<g>
	<path style="fill:#3075BA;" d="M14,3.1c6.1,0,11,5.1,11,11.3c0,2-0.5,3.9-1.4,5.6L14,34.7L4.4,20C3.5,18.3,3,16.4,3,14.4
		C3,8.2,7.9,3.1,14,3.1 M14,0.1C6.3,0.1,0,6.5,0,14.4c0,2.6,0.7,5,1.9,7.1L14,40.1l12.1-18.6c1.2-2.1,1.9-4.5,1.9-7.1
		C28,6.5,21.7,0.1,14,0.1L14,0.1z"/>
</g>
</svg>
