<?xml version="1.0" encoding="utf-8"?>
<!-- Generator: Adobe Illustrator 21.1.0, SVG Export Plug-In . SVG Version: 6.00 Build 0)  -->
<svg version="1.1" id="info" xmlns="http://www.w3.org/2000/svg" xmlns:xlink="http://www.w3.org/1999/xlink" x="0px" y="0px"
	 width="40px" height="40px" viewBox="0 0 40 40" style="enable-background:new 0 0 40 40;" xml:space="preserve">
<g>
	<path style="fill:#3075BA;" d="M17.7,40c-0.2,0-0.4,0-0.6-0.1c-0.5-0.2-0.8-0.7-0.8-1.3v-7.9h-5.6C4.8,30.7,0,25.9,0,20v-9.3
		C0,4.8,4.8,0,10.7,0h18.6C35.2,0,40,4.8,40,10.7V20c0,5.7-4.5,10.4-10.2,10.7l-11.2,9C18.3,39.9,18,40,17.7,40z M10.7,2.8
		c-4.3,0-7.9,3.5-7.9,7.9V20c0,4.3,3.5,7.9,7.9,7.9h7c0.8,0,1.4,0.6,1.4,1.4v6.4l9.3-7.5c0.2-0.2,0.6-0.3,0.9-0.3
		c4.3,0,7.9-3.5,7.9-7.9v-9.3c0-4.4-3.5-7.9-7.9-7.9H10.7z"/>
</g>
<circle style="fill:#3075BA;" cx="14" cy="16" r="1.5"/>
<circle style="fill:#3075BA;" cx="20" cy="16" r="1.5"/>
<circle style="fill:#3075BA;" cx="26" cy="16" r="1.5"/>
</svg>
