<?xml version="1.0" encoding="utf-8"?>
<!-- Generator: Adobe Illustrator 22.0.1, SVG Export Plug-In . SVG Version: 6.00 Build 0)  -->
<svg version="1.1" id="info" xmlns="http://www.w3.org/2000/svg" xmlns:xlink="http://www.w3.org/1999/xlink" x="0px" y="0px"
	 width="25px" height="25px" viewBox="0 0 25 25" style="enable-background:new 0 0 25 25;" xml:space="preserve">
<g>
	<path style="fill:#262626;" d="M5.3,24.4c-0.2,0-0.4-0.1-0.5-0.2c-0.3-0.2-0.5-0.6-0.3-1.1L7,15.5l-6.5-4.7C0,10.4-0.1,9.9,0,9.6
		S0.5,9,1,9h8l2.5-7.7c0.2-0.5,0.6-0.7,0.9-0.7c0.3,0,0.7,0.2,0.9,0.7L15.9,9l8,0c0.6,0,0.9,0.3,1,0.7c0.1,0.3,0,0.8-0.4,1.1
		L18,15.5l2.5,7.7c0.2,0.6,0,1-0.3,1.2c-0.3,0.2-0.7,0.3-1.2-0.1l-6.5-4.7L6,24.2C5.8,24.4,5.5,24.4,5.3,24.4z"/>
</g>
</svg>
