<?xml version="1.0" encoding="utf-8"?>
<!-- Generator: Adobe Illustrator 21.1.0, SVG Export Plug-In . SVG Version: 6.00 Build 0)  -->
<svg version="1.1" id="Calque_1" xmlns="http://www.w3.org/2000/svg" xmlns:xlink="http://www.w3.org/1999/xlink" x="0px" y="0px"
	 width="20px" height="20px" viewBox="0 0 20 20" enable-background="new 0 0 20 20" xml:space="preserve">
<g>
	<path d="M0.117,9.685c0.054-3.24,3.032-6.077,6.272-5.969c1.552-0.072,3.011,0.603,4.2,1.552C10.082,5.845,9.556,6.401,8.995,6.92
		C7.566,5.932,5.533,5.65,4.104,6.791c-2.045,1.414-2.138,4.753-0.171,6.275c1.913,1.735,5.528,0.874,6.056-1.783
		c-1.198-0.018-2.399,0-3.597-0.039C6.389,10.529,6.386,9.815,6.389,9.1c2.003-0.006,4.005-0.009,6.011,0.006
		c0.12,1.681-0.102,3.471-1.135,4.861C9.701,16.168,6.56,16.81,4.11,15.868C1.651,14.931-0.09,12.334,0.117,9.685z"/>
	<path d="M16.306,7.295c0.594,0,1.189,0,1.786,0c0.003,0.597,0.006,1.198,0.012,1.795c0.597,0.006,1.198,0.006,1.795,0.012
		c0,0.594,0,1.192,0,1.786c-0.597,0.006-1.195,0.009-1.795,0.015c-0.006,0.6-0.009,1.198-0.012,1.795c-0.597,0-1.192,0-1.789,0
		c-0.006-0.597-0.006-1.195-0.012-1.792c-0.597-0.006-1.198-0.012-1.795-0.018c0-0.594,0-1.189,0-1.786
		c0.597-0.006,1.195-0.009,1.795-0.012C16.294,8.49,16.3,7.893,16.306,7.295z"/>
</g>
</svg>
