<?xml version="1.0" encoding="utf-8"?>
<!-- Generator: Adobe Illustrator 20.1.0, SVG Export Plug-In . SVG Version: 6.00 Build 0)  -->
<svg version="1.1" id="Calque_1" xmlns="http://www.w3.org/2000/svg" xmlns:xlink="http://www.w3.org/1999/xlink" x="0px" y="0px"
	 width="20px" height="20px" viewBox="0 0 20 20" enable-background="new 0 0 20 20" xml:space="preserve">
<g>
	<g>
		<path d="M15.2,13c-0.2,0-0.3,0.1-0.3,0.2c-0.1,0.2-0.1,0.4-0.1,0.7l0,0.1c0,0,0,0.1,0,0.1h0.9v-0.2c0-0.3,0-0.5-0.1-0.6
			C15.5,13.1,15.4,13,15.2,13z"/>
		<path d="M11.9,13.1c-0.2,0-0.4,0.3-0.5,0.8c0,0.1,0,0.5,0,1.1c0,0.5,0,0.8,0,0.9c0.1,0.4,0.2,0.6,0.4,0.6c0.2,0,0.4-0.2,0.4-0.7
			c0-0.1,0-0.4,0-1c0-0.6,0-0.9,0-1C12.2,13.3,12.1,13.1,11.9,13.1z"/>
		<path d="M15.4,8.8H4.6c-1.5,0-2.7,1.2-2.7,2.7v5.3c0,1.5,1.2,2.7,2.7,2.7h10.8c1.5,0,2.7-1.2,2.7-2.7v-5.3
			C18.1,10,16.9,8.8,15.4,8.8z M6.7,11.7H5.6v5.7h-1v-5.7H3.5v-1.1h3.2V11.7z M9.7,17.3H8.8v-0.5c-0.2,0.4-0.5,0.6-0.8,0.6
			c-0.6,0-0.9-0.4-0.9-1.2v-4H8v3.3c0,0.3,0,0.5,0,0.6c0.1,0.2,0.2,0.3,0.3,0.3c0.2,0,0.3-0.1,0.4-0.3c0-0.1,0.1-0.3,0.1-0.6v-3.3
			h0.9V17.3z M13.1,16.5c-0.2,0.6-0.5,1-0.9,1c-0.4,0-0.7-0.2-0.8-0.7v0.5h-0.9v-6.8h0.9v2.1c0.2-0.4,0.4-0.6,0.8-0.6
			c0.5,0,0.8,0.3,0.9,1c0.1,0.3,0.1,0.9,0.1,1.7C13.2,15.6,13.2,16.2,13.1,16.5z M16.5,15h-1.8c0,0.1,0,0.2,0,0.3c0,0.4,0,0.7,0,0.8
			c0.1,0.3,0.2,0.5,0.4,0.5c0.3,0,0.5-0.3,0.5-1h0.9c0,0,0,0.1,0,0.1c0,0,0,0.1,0,0.1c0,0.6-0.1,1-0.3,1.3c-0.2,0.3-0.6,0.4-1,0.4
			c-0.5,0-0.8-0.2-1-0.5c-0.2-0.3-0.3-0.6-0.3-1.1c0-0.2,0-0.6,0-1.2c0-0.5,0-0.8,0-1c0-0.4,0.1-0.7,0.3-1c0.2-0.4,0.6-0.5,1.1-0.5
			c0.5,0,0.8,0.2,1.1,0.6c0.2,0.3,0.3,0.9,0.3,1.9V15z"/>
	</g>
	<g>
		<path d="M6,7.3V4.4L4.6,0.5h1.1l0.8,2.6l0.8-2.6h1.1L7,4.4v2.9H6z"/>
		<path d="M8.7,4.8c0-0.9,0.1-1.5,0.2-1.9c0.2-0.6,0.6-0.8,1.2-0.8c0.6,0,1,0.3,1.2,0.8c0.1,0.4,0.2,1,0.2,1.9
			c0,0.9-0.1,1.5-0.2,1.9c-0.2,0.5-0.6,0.8-1.2,0.8c-0.6,0-1-0.3-1.2-0.8C8.7,6.3,8.7,5.6,8.7,4.8z M9.6,4.8c0,0.6,0,1,0,1
			c0,0.5,0.2,0.7,0.4,0.7c0.2,0,0.4-0.2,0.4-0.6c0-0.1,0-0.4,0-1V4.5c0-0.5,0-0.8,0-0.9C10.4,3.2,10.3,3,10.1,3
			C9.8,3,9.7,3.1,9.6,3.5c0,0.1,0,0.4,0,0.9V4.8z"/>
		<path d="M14.7,2.2v5.1h-0.9V6.8c-0.2,0.4-0.5,0.6-0.8,0.6c-0.6,0-0.9-0.4-0.9-1.2v-4H13v3.4c0,0.3,0,0.5,0,0.6
			c0.1,0.2,0.2,0.3,0.3,0.3c0.2,0,0.3-0.1,0.4-0.3c0-0.1,0.1-0.3,0.1-0.6V2.2H14.7z"/>
	</g>
</g>
</svg>
