<?xml version="1.0" encoding="utf-8"?>
<!-- Generator: Adobe Illustrator 21.1.0, SVG Export Plug-In . SVG Version: 6.00 Build 0)  -->
<svg version="1.1" id="info" xmlns="http://www.w3.org/2000/svg" xmlns:xlink="http://www.w3.org/1999/xlink" x="0px" y="0px"
	 width="40px" height="40px" viewBox="0 0 40 40" style="enable-background:new 0 0 40 40;" xml:space="preserve">
<g>
	<path style="fill:#FFFFFF;" d="M20,11.6l1.6,4.8l0.7,2.1l2.2,0l5,0l-4,2.9l-1.8,1.3l0.7,2.1l1.5,4.7l-4-2.9L20,25.3l-1.8,1.3
		l-4,2.9l1.5-4.7l0.7-2.1l-1.8-1.3l-4-2.9h5h2.2l0.7-2.1L20,11.6 M20,4.6c-0.4,0-1,0.3-1.2,1l-3.2,9.8H5.3c-0.7,0-1.1,0.4-1.3,0.8
		c-0.1,0.4-0.1,1,0.5,1.4l8.4,6.1l-3.2,9.8c-0.2,0.7,0.1,1.2,0.4,1.5c0.2,0.1,0.4,0.2,0.7,0.2c0.3,0,0.5-0.1,0.8-0.3L20,29l8.4,6.1
		c0.3,0.2,0.6,0.3,0.9,0.3c0.3,0,0.5-0.1,0.7-0.2c0.4-0.3,0.6-0.8,0.4-1.5l-3.2-9.8l8.4-6.1c0.6-0.4,0.7-1,0.5-1.4
		c-0.1-0.4-0.5-0.8-1.3-0.8l-10.3,0l-3.2-9.9C21,4.9,20.4,4.6,20,4.6L20,4.6z"/>
</g>
</svg>
