<?xml version="1.0" encoding="utf-8"?>
<!-- Generator: Adobe Illustrator 20.1.0, SVG Export Plug-In . SVG Version: 6.00 Build 0)  -->
<svg version="1.1" id="Calque_1" xmlns="http://www.w3.org/2000/svg" xmlns:xlink="http://www.w3.org/1999/xlink" x="0px" y="0px"
	 width="20px" height="20px" viewBox="0 0 20 20" enable-background="new 0 0 20 20" xml:space="preserve">
<g>
	<path d="M10,2.8c2.3,0,2.6,0,3.5,0.1c0.9,0,1.3,0.2,1.6,0.3c0.4,0.2,0.7,0.3,1,0.7c0.3,0.3,0.5,0.6,0.7,1c0.1,0.3,0.3,0.8,0.3,1.6
		c0,0.9,0.1,1.2,0.1,3.5s0,2.6-0.1,3.5c0,0.9-0.2,1.3-0.3,1.6c-0.2,0.4-0.3,0.7-0.7,1c-0.3,0.3-0.6,0.5-1,0.7
		c-0.3,0.1-0.8,0.3-1.6,0.3c-0.9,0-1.2,0.1-3.5,0.1s-2.6,0-3.5-0.1c-0.9,0-1.3-0.2-1.6-0.3c-0.4-0.2-0.7-0.3-1-0.7
		c-0.3-0.3-0.5-0.6-0.7-1c-0.1-0.3-0.3-0.8-0.3-1.6c0-0.9-0.1-1.2-0.1-3.5s0-2.6,0.1-3.5c0-0.9,0.2-1.3,0.3-1.6
		c0.2-0.4,0.3-0.7,0.7-1c0.3-0.3,0.6-0.5,1-0.7c0.3-0.1,0.8-0.3,1.6-0.3C7.4,2.8,7.7,2.8,10,2.8 M10,1.2c-2.4,0-2.7,0-3.6,0.1
		c-0.9,0-1.6,0.2-2.1,0.4c-0.6,0.2-1.1,0.5-1.6,1c-0.5,0.5-0.8,1-1,1.6C1.5,4.8,1.3,5.5,1.3,6.4c0,0.9-0.1,1.2-0.1,3.6
		c0,2.4,0,2.7,0.1,3.6c0,0.9,0.2,1.6,0.4,2.1c0.2,0.6,0.5,1.1,1,1.6c0.5,0.5,1,0.8,1.6,1c0.6,0.2,1.2,0.4,2.1,0.4
		c0.9,0,1.2,0.1,3.6,0.1s2.7,0,3.6-0.1c0.9,0,1.6-0.2,2.1-0.4c0.6-0.2,1.1-0.5,1.6-1c0.5-0.5,0.8-1,1-1.6c0.2-0.6,0.4-1.2,0.4-2.1
		c0-0.9,0.1-1.2,0.1-3.6s0-2.7-0.1-3.6c0-0.9-0.2-1.6-0.4-2.1c-0.2-0.6-0.5-1.1-1-1.6c-0.5-0.5-1-0.8-1.6-1
		c-0.6-0.2-1.2-0.4-2.1-0.4C12.7,1.3,12.4,1.2,10,1.2L10,1.2z"/>
	<path d="M10,5.5c-2.5,0-4.5,2-4.5,4.5s2,4.5,4.5,4.5s4.5-2,4.5-4.5S12.5,5.5,10,5.5z M10,12.9c-1.6,0-2.9-1.3-2.9-2.9
		S8.4,7.1,10,7.1s2.9,1.3,2.9,2.9S11.6,12.9,10,12.9z"/>
	<circle cx="14.7" cy="5.3" r="1.1"/>
</g>
</svg>
