<?xml version="1.0" encoding="utf-8"?>
<!-- Generator: Adobe Illustrator 20.1.0, SVG Export Plug-In . SVG Version: 6.00 Build 0)  -->
<svg version="1.1" id="Calque_1" xmlns="http://www.w3.org/2000/svg" xmlns:xlink="http://www.w3.org/1999/xlink" x="0px" y="0px"
	 width="32px" height="32px" viewBox="0 0 32 32" enable-background="new 0 0 32 32" xml:space="preserve">
<g>
	<g>
		<path fill="#FFC82C" d="M16.1,20.3c-0.9,0-1.6,0.7-1.6,1.6c0,0.9,0.7,1.6,1.6,1.6c0.9,0,1.6-0.7,1.6-1.6
			C17.6,21,16.9,20.3,16.1,20.3z"/>
		<path fill="#FFC82C" d="M16.6,7h-1.1c-0.7,0-1.3,0.8-1.3,1.9l0.5,7.4c0,1.1,0.6,1.9,1.3,1.9h0.2c0.7,0,1.3-0.8,1.3-1.9l0.5-7.4
			C17.9,7.8,17.3,7,16.6,7z"/>
	</g>
</g>
<path fill="#FFC82C" d="M16,0C7.2,0,0,7.2,0,16s7.2,16,16,16c8.8,0,16-7.2,16-16S24.8,0,16,0z M16,29.6C8.5,29.6,2.4,23.5,2.4,16
	C2.4,8.5,8.5,2.4,16,2.4c7.5,0,13.6,6.1,13.6,13.6C29.6,23.5,23.5,29.6,16,29.6z"/>
</svg>
