<?xml version="1.0" encoding="utf-8"?>
<!-- Generator: Adobe Illustrator 21.1.0, SVG Export Plug-In . SVG Version: 6.00 Build 0)  -->
<svg version="1.1" id="info" xmlns="http://www.w3.org/2000/svg" xmlns:xlink="http://www.w3.org/1999/xlink" x="0px" y="0px"
	 width="40px" height="40px" viewBox="0 0 40 40" style="enable-background:new 0 0 40 40;" xml:space="preserve">
<path style="fill:#2F75BD;" d="M39.2,9l-3.3-3.8c-0.3-0.3-0.7-0.5-1.1-0.5h-13V3.4C21.7,1,20.9,0,20,0c-0.9,0-1.7,1-1.7,3.4v1.2H10
	c-0.8,0-1.5,0.7-1.5,1.5v7.6c0,0.8,0.7,1.5,1.5,1.5h8.4v2.4h-13c-0.4,0-0.8,0.2-1.1,0.5L0.8,22c-0.5,0.6-0.5,1.4,0,2l3.3,3.8
	c0.3,0.3,0.7,0.5,1.1,0.5h13v8.2c0,2.4,0.8,3.4,1.7,3.4c0.9,0,1.7-1,1.7-3.4v-8.2H30c0.8,0,1.5-0.7,1.5-1.5v-7.6
	c0-0.8-0.7-1.5-1.5-1.5h-8.4v-2.4h13c0.4,0,0.8-0.2,1.1-0.5l3.3-3.8C39.7,10.4,39.7,9.6,39.2,9z M28.5,20.7v4.6H6L4,23l2-2.3H28.5z
	 M34,12.3H11.5V7.7H34l2,2.3L34,12.3z"/>
</svg>
