<?xml version="1.0" encoding="utf-8"?>
<!-- Generator: Adobe Illustrator 21.1.0, SVG Export Plug-In . SVG Version: 6.00 Build 0)  -->
<svg version="1.1" id="info" xmlns="http://www.w3.org/2000/svg" xmlns:xlink="http://www.w3.org/1999/xlink" x="0px" y="0px"
	 width="40px" height="40px" viewBox="0 0 40 40" style="enable-background:new 0 0 40 40;" xml:space="preserve">
<path style="fill:#FFFFFF;" d="M39.3,37.3l-8.6-8.6c2.6-3,4.1-6.9,4.1-11.2C34.8,7.8,27,0,17.4,0S0,7.8,0,17.5
	c0,9.6,7.8,17.4,17.4,17.4c4.3,0,8.2-1.5,11.2-4.1l8.6,8.6c0.3,0.3,0.7,0.4,1.1,0.4s0.8-0.1,1.1-0.4C39.9,38.8,39.9,37.9,39.3,37.3z
	 M17.4,31.6c-7.8,0-14.2-6.3-14.2-14.2c0-7.8,6.3-14.2,14.2-14.2c7.8,0,14.2,6.3,14.2,14.2C31.6,25.3,25.2,31.6,17.4,31.6z"/>
</svg>
