<?xml version="1.0" encoding="utf-8"?>
<!-- Generator: Adobe Illustrator 21.0.2, SVG Export Plug-In . SVG Version: 6.00 Build 0)  -->
<svg version="1.1" id="Calque_1" xmlns="http://www.w3.org/2000/svg" xmlns:xlink="http://www.w3.org/1999/xlink" x="0px" y="0px"
	 width="50px" height="63px" viewBox="0 0 50 63" enable-background="new 0 0 50 63" xml:space="preserve">
<g>
	<path d="M47.7,0H2.3H0v2.3v44.5v1.4l1.2,0.7l22.7,12.6L25,62l1.1-0.6l22.7-12.6l1.2-0.7v-1.4V2.3V0H47.7z M47.7,46.8L25,59.4
		L2.3,46.8V2.3h45.3V46.8z"/>
	<path fill="#010202" d="M40.6,17.8l0-0.5h-3.5l0,0.5c0,0.3,0,0.5,0,0.6c0,0.1-0.1,0.3-0.2,0.6c-0.1,0.3-0.3,0.7-0.6,0.9l-0.4,0.4
		l-0.1,0l-0.1,0l0,0l0,0l0,0l0,0h-0.1h-0.1l0,0l0,0l0-0.1c0,0-0.1-0.2-0.3-0.5s-1.2-1.6-1.2-1.6l-0.7-0.7c-2.9-2.3-13-2.5-18,0.3
		c-0.6,0.3-1.3,0.8-1.9,1.3c-0.6,0.5-1.2,1-1.7,1.6c-0.5,0.6-0.9,1.2-1.3,1.9s-0.6,1.3-0.8,2s-0.3,1-0.3,1.2c0,0.2,0,0.5-0.1,1.1
		l0,0.8c0,0.8,1.1,2.4,2.5,2.8l0.9,0.3c0.6,0.2,1.5,0.4,2.6,0.5s3.9,0.4,8.4,0.6s7.2,0.4,8.2,0.6c1,0.2,1.7,0.3,2.1,0.5
		c0.4,0.2,0.7,0.3,0.9,0.5c0.2,0.2,0.3,0.4,0.3,0.6c0,0.2,0,0.5-0.1,0.7c-0.1,0.3-0.3,0.5-0.6,0.7s-0.7,0.4-1.2,0.6
		c-0.5,0.2-1.3,0.4-2.1,0.5c-0.9,0.2-2.1,0.3-3.6,0.4c-1.5,0.1-2.4,0-2.6-0.3c-0.2-0.3-0.5-0.6-0.9-0.9c-0.4-0.3-0.8-0.6-1.4-0.8
		s-1-0.4-1.4-0.5c-0.4-0.1-0.9-0.2-1.5-0.2s-1,0.1-1.4,0.2c-0.4,0.1-0.7,0.3-0.9,0.4c-0.2,0.2-0.4,0.3-0.5,0.5s-0.2,0.3-0.2,0.4
		c-0.7,1.2,0.8,2.9,2.7,3.3h0.1h0.1l0.2,0l0.2,0l1.8,0.2c1.2,0.1,2.5,0.2,3.8,0.2c1.4,0,2.6-0.1,3.7-0.2s1.8-0.2,2.2-0.3
		c5.1-0.9,10.6-5.1,8.4-8.9l0,0l0-0.1l0-0.1l0-0.1l0-0.1l0-0.1c0,0-0.2-0.2-0.4-0.6c-0.3-0.4-0.6-0.7-1-1.1
		c-0.4-0.4-0.8-0.7-1.3-0.9c-0.5-0.3-1.1-0.5-1.9-0.8c-0.8-0.3-1.7-0.5-2.9-0.6c-1.1-0.2-2.9-0.3-5.4-0.3c-2.5,0-4.1-0.1-4.9-0.1
		c-0.8-0.1-1.5-0.2-2.2-0.3c-0.7-0.2-1.3-0.4-1.8-0.6c-0.5-0.2-0.9-0.5-1.1-0.7c-0.3-0.3-0.5-0.5-0.6-0.9c-0.1-0.3-0.2-0.6-0.2-1
		c0-0.3,0-0.6,0.1-0.9c0.1-0.3,0.3-0.6,0.5-0.9c0.2-0.3,0.5-0.5,0.9-0.8s0.9-0.5,1.5-0.8s1.3-0.5,2.1-0.6c0.8-0.2,1.8-0.3,2.8-0.3
		c1,0,2,0,2.7,0.1c0.8,0.1,1.5,0.3,2.2,0.5s1.4,0.5,1.9,0.9c0.5,0.3,0.9,0.7,1.2,1c0.3,0.3,0.5,0.7,0.7,1.1c0.2,0.4,0.4,0.9,0.6,1.5
		c0.2,0.6,1.4,0.9,3.7,0.9h3.5l0-2.9L40.6,17.8"/>
</g>
</svg>
