<?xml version="1.0" encoding="utf-8"?>
<!-- Generator: Adobe Illustrator 20.1.0, SVG Export Plug-In . SVG Version: 6.00 Build 0)  -->
<svg version="1.1" id="Calque_1" xmlns="http://www.w3.org/2000/svg" xmlns:xlink="http://www.w3.org/1999/xlink" x="0px" y="0px"
	 width="20px" height="20px" viewBox="0 0 20 20" enable-background="new 0 0 20 20" xml:space="preserve">
<path fill-rule="evenodd" clip-rule="evenodd" d="M6.1,16.8H2.9V7.6h3.2V16.8z M4.5,6.4c-1,0-1.8-0.7-1.8-1.6c0-0.9,0.8-1.6,1.8-1.6
	c1,0,1.8,0.7,1.8,1.6C6.3,5.7,5.5,6.4,4.5,6.4z M17.3,16.8h-3.2c0,0,0-3.5,0-5.3c0-1.8-1.6-1.8-1.6-1.8s-1.3,0-1.8,1.5v5.5H7.5V7.6
	h3.2V9c0.4-0.7,1.3-1.6,2.9-1.6c2.5,0,3.6,1.7,3.6,4.2C17.3,14.2,17.3,16.8,17.3,16.8z"/>
</svg>
