<?xml version="1.0" encoding="utf-8"?>
<!-- Generator: Adobe Illustrator 21.0.2, SVG Export Plug-In . SVG Version: 6.00 Build 0)  -->
<svg version="1.1" id="Calque_1" xmlns="http://www.w3.org/2000/svg" xmlns:xlink="http://www.w3.org/1999/xlink" x="0px" y="0px"
	 width="40px" height="40px" viewBox="0 0 40 40" enable-background="new 0 0 40 40" xml:space="preserve">
<g>
	<path d="M22.3,27.1h-5c0-0.7,0-1.2,0-1.3c0-1.6,0.3-3,0.8-4c0.5-1.1,1.6-2.2,3.2-3.5s2.6-2.2,2.9-2.6c0.5-0.6,0.7-1.4,0.7-2.1
		c0-1.1-0.4-2-1.3-2.8c-0.9-0.8-2-1.2-3.5-1.2c-1.4,0-2.6,0.4-3.5,1.2c-0.9,0.8-1.6,2-2,3.7l-5.1-0.6c0.1-2.4,1.1-4.3,3-6
		s4.3-2.5,7.3-2.5c3.2,0,5.7,0.8,7.6,2.5c1.9,1.7,2.8,3.6,2.8,5.8c0,1.2-0.3,2.4-1,3.5c-0.7,1.1-2.2,2.6-4.4,4.5
		c-1.2,1-1.9,1.8-2.2,2.3C22.4,24.6,22.3,25.6,22.3,27.1z M17.3,34.6v-5.5h5.5v5.5H17.3z"/>
</g>
</svg>
