<?xml version="1.0" encoding="utf-8"?>
<!-- Generator: Adobe Illustrator 20.1.0, SVG Export Plug-In . SVG Version: 6.00 Build 0)  -->
<svg version="1.1" id="Calque_1" xmlns="http://www.w3.org/2000/svg" xmlns:xlink="http://www.w3.org/1999/xlink" x="0px" y="0px"
	 width="20px" height="20px" viewBox="0 0 20 20" enable-background="new 0 0 20 20" xml:space="preserve">
<g>
	<path d="M11.9,9.2c-1.5,0-2.7,1.3-2.7,2.7c0,1.5,1.2,2.7,2.9,2.7c1.4,0,2.6-1.2,2.6-2.7C14.6,10.4,13.4,9.2,11.9,9.2z"/>
	<path d="M0,0v20h20V0H0z M18,18h-3v-1.7c-1,0.9-2.2,1.3-3.5,1.3c-1.3,0-2.6-0.4-3.6-1.3c-1.3-1.1-2-2.6-2-4.3c0-1.6,0.6-3,1.7-4.1
		c1-1,2-1.5,3.4-1.5c1.3,0,2.9,0.5,2.9,1.4V2.9l4-0.7V18z"/>
</g>
</svg>
