<?xml version="1.0" encoding="utf-8"?>
<!-- Generator: Adobe Illustrator 21.1.0, SVG Export Plug-In . SVG Version: 6.00 Build 0)  -->
<svg version="1.1" id="info" xmlns="http://www.w3.org/2000/svg" xmlns:xlink="http://www.w3.org/1999/xlink" x="0px" y="0px"
	 width="40px" height="40px" viewBox="0 0 40 40" style="enable-background:new 0 0 40 40;" xml:space="preserve">
<path style="fill:#020203;" d="M14.5,23.3l8.7-8.7c0.7-0.7,1.7-0.7,2.3,0c0.7,0.7,0.7,1.7,0,2.3l-8.7,8.7c-0.7,0.7-1.6,0.7-2.3,0
	C13.8,24.9,13.8,23.9,14.5,23.3z M14.3,29.6c-1,1.1-2.8,1.1-3.8,0c-1.1-1-1.1-2.8,0-3.8l6.9-6.9c-2-0.6-4.3-0.2-5.9,1.5l-3.3,3.3
	c-2.3,2.3-2.3,6,0,8.3c2.3,2.3,6,2.3,8.3,0l3.3-3.3c1.6-1.6,2.1-3.9,1.5-5.9L14.3,29.6z M31.8,8.3c-2.3-2.3-6-2.3-8.3,0l-3.3,3.3
	c-1.6,1.6-2.1,3.9-1.5,5.9l6.9-6.9c1.1-1.1,2.9-1,3.8,0c1.1,1.1,1,2.9,0,3.8l-6.9,7c2.3,0.7,4.4,0,5.9-1.5l3.3-3.3
	C34.1,14.3,34.1,10.5,31.8,8.3z"/>
</svg>
