<?xml version="1.0" encoding="utf-8"?>
<!-- Generator: Adobe Illustrator 22.0.1, SVG Export Plug-In . SVG Version: 6.00 Build 0)  -->
<svg version="1.1" id="Calque_1" xmlns="http://www.w3.org/2000/svg" xmlns:xlink="http://www.w3.org/1999/xlink" x="0px" y="0px"
	 width="16px" height="16px" viewBox="0 0 16 16" style="enable-background:new 0 0 16 16;" xml:space="preserve">
<g>
	<path style="fill:#FFFFFF;" d="M8,1.5c1.2,0,2.1,1,2.1,2.1v1.5c0,1.2-1,2.1-2.1,2.1s-2.1-1-2.1-2.1V3.6C5.9,2.5,6.8,1.5,8,1.5
		 M10,11.5c1.9,0,3.5,1.3,4,3H2c0.5-1.7,2.1-3,4-3H10 M8,0C6,0,4.4,1.6,4.4,3.6v1.5c0,2,1.6,3.6,3.6,3.6s3.6-1.6,3.6-3.6V3.6
		C11.6,1.6,10,0,8,0L8,0z M10,10H6c-2.9,0-5.4,2.3-5.6,5.2c0,0.2,0.1,0.4,0.2,0.6C0.8,15.9,1,16,1.2,16h13.7c0.2,0,0.4-0.1,0.6-0.2
		c0.1-0.2,0.2-0.4,0.2-0.6C15.4,12.3,12.9,10,10,10L10,10z"/>
</g>
</svg>
