<?xml version="1.0" encoding="utf-8"?>
<!-- Generator: Adobe Illustrator 20.1.0, SVG Export Plug-In . SVG Version: 6.00 Build 0)  -->
<svg version="1.1" id="Calque_1" xmlns="http://www.w3.org/2000/svg" xmlns:xlink="http://www.w3.org/1999/xlink" x="0px" y="0px"
	 width="20px" height="20px" viewBox="0 0 20 20" enable-background="new 0 0 20 20" xml:space="preserve">
<path d="M19.9,3.9c-0.7,0.3-1.5,0.5-2.3,0.6C18.4,4,19,3.2,19.3,2.3c-0.8,0.5-1.7,0.8-2.6,1C16,2.5,15,2,13.8,2
	C11.6,2,9.7,3.8,9.7,6c0,0.3,0,0.6,0.1,0.9C6.5,6.8,3.5,5.2,1.5,2.7C1.1,3.3,0.9,4,0.9,4.7c0,1.4,0.7,2.7,1.8,3.4
	c-0.7,0-1.3-0.2-1.8-0.5c0,0,0,0,0,0.1c0,2,1.4,3.6,3.3,4c-0.3,0.1-0.7,0.1-1.1,0.1c-0.3,0-0.5,0-0.8-0.1c0.5,1.6,2,2.8,3.8,2.8
	c-1.4,1.1-3.1,1.7-5,1.7c-0.3,0-0.7,0-1-0.1C1.9,17.4,4,18,6.3,18c7.5,0,11.5-6.2,11.5-11.5c0-0.2,0-0.4,0-0.5
	C18.7,5.4,19.3,4.7,19.9,3.9z"/>
</svg>
