<?xml version="1.0" encoding="utf-8"?>
<!-- Generator: Adobe Illustrator 20.1.0, SVG Export Plug-In . SVG Version: 6.00 Build 0)  -->
<svg version="1.1" id="Calque_1" xmlns="http://www.w3.org/2000/svg" xmlns:xlink="http://www.w3.org/1999/xlink" x="0px" y="0px"
	 width="32px" height="32px" viewBox="0 0 32 32" enable-background="new 0 0 32 32" xml:space="preserve">
<g>
	<g>
		<path fill="#13CE66" d="M22.1,10.1l-7.7,9.2l-4.4-4.9c-0.4-0.5-1.2-0.5-1.7-0.1c-0.5,0.4-0.5,1.2-0.1,1.7l5.4,5.9
			c0.2,0.2,0.5,0.4,0.9,0.4c0,0,0,0,0,0c0.3,0,0.7-0.2,0.9-0.4l8.6-10.2c0.4-0.5,0.4-1.2-0.1-1.7C23.2,9.6,22.5,9.6,22.1,10.1z"/>
	</g>
</g>
<path fill="#13CE66" d="M16,0C7.2,0,0,7.2,0,16s7.2,16,16,16c8.8,0,16-7.2,16-16S24.8,0,16,0z M16,29.6C8.5,29.6,2.4,23.5,2.4,16
	C2.4,8.5,8.5,2.4,16,2.4c7.5,0,13.6,6.1,13.6,13.6C29.6,23.5,23.5,29.6,16,29.6z"/>
</svg>
