<?xml version="1.0" encoding="utf-8"?>
<!-- Generator: Adobe Illustrator 21.1.0, SVG Export Plug-In . SVG Version: 6.00 Build 0)  -->
<svg version="1.1" id="info" xmlns="http://www.w3.org/2000/svg" xmlns:xlink="http://www.w3.org/1999/xlink" x="0px" y="0px"
	 width="40px" height="40px" viewBox="0 0 40 40" style="enable-background:new 0 0 40 40;" xml:space="preserve">
<path style="fill:#FFFFFF;" d="M36.7,34.5l-7.2-7.2c2.1-2.6,3.3-5.8,3.3-9.4c0-8.2-6.6-14.8-14.8-14.8C9.8,3.2,3.2,9.8,3.2,18
	c0,8.2,6.6,14.8,14.8,14.8c3.6,0,6.8-1.3,9.4-3.3l7.2,7.2c0.3,0.3,0.7,0.4,1.1,0.4s0.8-0.1,1.1-0.4C37.2,36.1,37.2,35.1,36.7,34.5z
	 M18,29.8c-6.5,0-11.8-5.3-11.8-11.8c0-6.5,5.3-11.8,11.8-11.8c6.5,0,11.8,5.3,11.8,11.8C29.8,24.5,24.5,29.8,18,29.8z"/>
</svg>
