<?xml version="1.0" encoding="utf-8"?>
<!-- Generator: Adobe Illustrator 22.0.1, SVG Export Plug-In . SVG Version: 6.00 Build 0)  -->
<svg version="1.1" id="info" xmlns="http://www.w3.org/2000/svg" xmlns:xlink="http://www.w3.org/1999/xlink" x="0px" y="0px"
	 width="25px" height="25px" viewBox="0 0 25 25" style="enable-background:new 0 0 25 25;" xml:space="preserve">
<g>
	<path style="fill:#FFFFFF;" d="M12.5,3.3l2,6.1l0.3,1l1.1,0l6.4,0l-5.2,3.8l-0.9,0.6l0.3,1l2,6.1l-5.2-3.8l-0.9-0.6l-0.9,0.6
		L6.4,22l2-6.1l0.3-1l-0.9-0.6l-5.2-3.8h6.4h1.1l0.3-1L12.5,3.3 M12.5,0.6c-0.3,0-0.7,0.2-0.9,0.7L9.1,9H1C0.5,9,0.1,9.3,0,9.6
		c-0.1,0.3,0,0.8,0.4,1.1L7,15.5l-2.5,7.6c-0.2,0.5,0,1,0.3,1.1c0.1,0.1,0.3,0.2,0.5,0.2c0.2,0,0.4-0.1,0.7-0.2l6.5-4.7l6.5,4.7
		c0.2,0.2,0.5,0.2,0.7,0.2c0.2,0,0.4-0.1,0.5-0.2c0.3-0.2,0.5-0.6,0.3-1.2L18,15.5l6.5-4.7c0.5-0.3,0.5-0.8,0.4-1.1
		C24.9,9.3,24.5,9,24,9l-8,0l-2.5-7.7C13.2,0.8,12.8,0.6,12.5,0.6L12.5,0.6z"/>
</g>
</svg>
