<?xml version="1.0" encoding="utf-8"?>
<!-- Generator: Adobe Illustrator 22.0.1, SVG Export Plug-In . SVG Version: 6.00 Build 0)  -->
<svg version="1.1" id="Calque_1" xmlns="http://www.w3.org/2000/svg" xmlns:xlink="http://www.w3.org/1999/xlink" x="0px" y="0px"
	 width="28px" height="44px" viewBox="0 0 28 44" style="enable-background:new 0 0 28 44;" xml:space="preserve">
<g>
	
		<radialGradient id="SVGID_1_" cx="14" cy="40.1117" r="10.167" gradientTransform="matrix(1 0 0 0.2 0 32.0894)" gradientUnits="userSpaceOnUse">
		<stop  offset="0" style="stop-color:#000000;stop-opacity:0.6"/>
		<stop  offset="1" style="stop-color:#000000;stop-opacity:0"/>
	</radialGradient>
	<path style="fill-rule:evenodd;clip-rule:evenodd;fill:url(#SVGID_1_);" d="M14,36.8c7.7,0,14,1.5,14,3.3c0,1.8-6.3,3.3-14,3.3
		c-7.7,0-14-1.5-14-3.3C0,38.3,6.3,36.8,14,36.8z"/>
</g>
<path style="fill:#E0E0E0;" d="M14,0.1C6.3,0.1,0,6.5,0,14.4c0,2.6,0.7,5,1.9,7.1L14,40.1l12.1-18.6c1.2-2.1,1.9-4.5,1.9-7.1
	C28,6.5,21.7,0.1,14,0.1L14,0.1z"/>
<path style="fill:#262626;" d="M14,2.3c6.4,0,11.6,5.3,11.6,11.9c0,2.1-0.5,4.1-1.5,5.9L14,35.5L3.9,20c-1-1.8-1.5-3.8-1.5-5.9
	C2.4,7.6,7.6,2.3,14,2.3"/>
<g>
	<path style="fill:#515151;" d="M14,6.2c-0.5,0-0.9,0.2-1.3,0.5c-0.3,0.4-0.5,0.8-0.5,1.3c0,0.5,0.2,0.9,0.5,1.3
		c0.4,0.4,0.8,0.5,1.3,0.5c0.5,0,0.9-0.2,1.3-0.5C15.6,9,15.8,8.5,15.8,8c0-0.5-0.2-0.9-0.5-1.3C14.9,6.4,14.5,6.2,14,6.2z"/>
	<path style="fill:#515151;" d="M16.3,12.1c-1.6,0.2-3.3,0.4-4.9,0.6l-0.2,0.7c0.2,0,0.3,0,0.4,0c0.3,0,0.5,0.1,0.6,0.2
		c0.2,0.1,0.2,0.3,0.2,0.5c0,0.3-0.1,0.4-0.2,1L10.5,21c-0.1,0.5-0.2,0.9-0.2,1.2c0,0.5,0.2,0.8,0.5,1.2c0.3,0.3,1.3,0.4,1.9,0.4
		c1.4,0,3.7-0.8,5-2.9l-1-0.6c-0.5,0.8-1.5,1.4-1.9,1.6c-0.5,0.2-0.7,0.2-0.9,0.2c-0.1,0-0.2,0-0.2-0.1c-0.1-0.1-0.1-0.2-0.1-0.3
		c0-0.2,0.1-0.5,0.2-1L16.3,12.1z"/>
</g>
</svg>
