<?xml version="1.0" encoding="utf-8"?>
<!-- Generator: Adobe Illustrator 21.1.0, SVG Export Plug-In . SVG Version: 6.00 Build 0)  -->
<svg version="1.1" id="info" xmlns="http://www.w3.org/2000/svg" xmlns:xlink="http://www.w3.org/1999/xlink" x="0px" y="0px"
	 width="40px" height="40px" viewBox="0 0 40 40" style="enable-background:new 0 0 40 40;" xml:space="preserve">
<g>
	<path style="fill:#020203;" d="M35.7,15.9c2.2,2.2,2.2,5.9,0,8.1L24.1,35.7c-2.2,2.2-5.9,2.2-8.1,0L4.3,24.1
		c-2.2-2.2-2.2-5.9,0-8.1L15.9,4.3c2.2-2.2,5.9-2.2,8.1,0L35.7,15.9 M37.4,14.2L25.8,2.6c-3.2-3.2-8.4-3.2-11.6,0L2.6,14.2
		c-3.2,3.2-3.2,8.4,0,11.6l11.6,11.6c3.2,3.2,8.4,3.2,11.6,0l11.6-11.6C40.6,22.6,40.6,17.4,37.4,14.2L37.4,14.2z"/>
</g>
<g>
	<path style="fill:#020203;" d="M15.5,30.6c-0.1,0-0.3-0.1-0.4-0.1L13,28.2c-0.1-0.1-0.1-0.2-0.1-0.4v-11c0-0.3,0.2-0.5,0.5-0.5h9.8
		l-2.6-2.5c-0.1-0.1-0.2-0.2-0.2-0.3c0-0.1,0-0.3,0.1-0.4l1.5-1.6c0.2-0.2,0.5-0.2,0.7,0l6.3,6c0.1,0.1,0.2,0.2,0.2,0.3
		c0,0.1,0,0.3-0.1,0.4l-6.3,6.6c-0.2,0.2-0.5,0.2-0.7,0l-1.6-1.5c-0.1-0.1-0.2-0.2-0.2-0.3c0-0.1,0-0.3,0.1-0.4l2.9-3.1H16v10.5
		c0,0.2-0.1,0.4-0.3,0.5C15.7,30.6,15.6,30.6,15.5,30.6z"/>
</g>
</svg>
