<?xml version="1.0" encoding="utf-8"?>
<!-- Generator: Adobe Illustrator 20.1.0, SVG Export Plug-In . SVG Version: 6.00 Build 0)  -->
<svg version="1.1" id="Calque_1" xmlns="http://www.w3.org/2000/svg" xmlns:xlink="http://www.w3.org/1999/xlink" x="0px" y="0px"
	 width="20px" height="20px" viewBox="0 0 20 20" enable-background="new 0 0 20 20" xml:space="preserve">
<path d="M2.2,12.4c0,1.7,0.6,3.3,1.8,4.6s2.7,2,4.6,2c1.9,0,3.4-0.7,4.6-2c1.2-1.3,1.8-2.8,1.8-4.6c0-0.9-0.2-1.8-0.5-2.6
	c-0.5,0.3-1,0.5-1.5,0.6c0.3,0.6,0.4,1.3,0.4,2c0,0.9-0.2,1.7-0.6,2.5c-0.4,0.8-1,1.4-1.8,1.8c-0.7,0.4-1.5,0.6-2.4,0.6
	c-0.9,0-1.7-0.2-2.4-0.6c-0.7-0.4-1.3-1-1.7-1.8c-0.4-0.8-0.7-1.6-0.7-2.5c0-1.4,0.5-2.6,1.4-3.6c1-1,2.1-1.5,3.4-1.5
	c0.6,0,1.2,0.1,1.7,0.3c0-0.5,0.2-1,0.5-1.5c-0.7-0.2-1.4-0.4-2.2-0.4c-1.9,0-3.5,0.7-4.7,2.1C2.7,9.1,2.2,10.6,2.2,12.4z M7.2,16.9
	l1,0.1c0.9-0.6,1.6-1.2,2.2-1.9c0.6-0.7,1-1.5,1.3-2.2c0.3-0.7,0.4-1.5,0.6-2.2c0.1-0.5,0.1-1,0.1-1.4c0-0.2,0-0.5,0-0.7
	c-0.1-0.7-0.1-1.2-0.2-1.8s-0.2-0.9-0.3-1.2L11.6,5c-0.3-0.8-0.5-1.5-0.8-2.1s-0.4-1-0.6-1.2l-0.2-0.3c0.5,0.2,0.8,0.5,1.1,0.9
	c0.3,0.3,0.4,0.7,0.5,0.9c0,0.2,0.1,0.5,0.1,0.7V4c0,0.3,0,0.5-0.1,0.6l-0.1,0.2c0,0.7,0.1,1.4,0.1,2c0,0.6,0,1.2-0.1,1.8
	c-0.1,1.2-0.3,2.2-0.5,3c-0.3,0.8-0.5,1.5-0.9,2.2c-0.3,0.6-0.7,1.2-1,1.5s-0.7,0.7-1,0.9c-0.3,0.2-0.5,0.4-0.7,0.5L7.2,16.9z
	 M12.1,5.5c0-0.5,0.2-0.9,0.4-1.1l0.3-0.4c0.1-0.2,0.4-0.3,0.7-0.5c0.3-0.1,0.6-0.3,0.9-0.3L14.7,3c0.4-0.1,0.8-0.3,1.2-0.6
	s0.6-0.6,0.8-0.9l0.2-0.4c0.5,0.7,0.8,1.4,0.9,2.3c0,0.4,0.1,0.7,0.1,1c0,0.4,0,0.8-0.1,1.1l-0.2,0.8c-0.1,0.4-0.3,0.7-0.6,1.1
	c-0.3,0.3-0.5,0.5-0.7,0.7L16,8.2c-0.4,0.2-0.8,0.4-1.2,0.4l-1.9-0.9c0.7-0.4,1.3-0.8,1.8-1.2c0.5-0.4,0.9-0.7,1.1-1
	c0.2-0.3,0.4-0.6,0.6-0.8c0.1-0.2,0.2-0.4,0.3-0.6l0-0.2c-0.2,0.5-0.5,0.9-0.9,1.3c-0.4,0.4-0.7,0.7-1.1,0.9
	c-0.4,0.2-0.7,0.4-1.1,0.6C13.3,6.9,13,7,12.8,7l-0.3,0.1c-0.3-0.5-0.4-1-0.4-1.4C12,5.6,12,5.6,12.1,5.5z"/>
</svg>
